<svg xmlns="http://www.w3.org/2000/svg" width="800" height="360" viewBox="0 0 800 360">
<style>
.bg{fill:#f5f9f9} .organ{fill:#dbeeed;stroke:#356f70;stroke-width:3} .accent{fill:none;stroke:#0c766f;stroke-width:5;stroke-linecap:round;stroke-linejoin:round}
.line{fill:none;stroke:#688386;stroke-width:4;stroke-linecap:round;stroke-linejoin:round} .vessel{fill:none;stroke:#b35656;stroke-width:7;stroke-linecap:round}
.nerve{fill:none;stroke:#d7a63d;stroke-width:6;stroke-linecap:round} .danger{fill:#fff3ee;stroke:#b35656;stroke-width:3}
.title{font:700 20px system-ui,sans-serif;fill:#172326} .sub{font:600 11px system-ui,sans-serif;fill:#0c766f;letter-spacing:1.5px}
.label text{font:500 13px system-ui,sans-serif;fill:#314448} .label circle{fill:#0c766f} .label circle+text{fill:white;font-weight:700}
.note{font:500 11px system-ui,sans-serif;fill:#718083} .dangertext{font:600 12px system-ui,sans-serif;fill:#934d4d}
</style>
<rect width="800" height="360" rx="22" class="bg"/>
<text x="30" y="35" class="sub">ORIENTATION SCHEMATIC · NOT TO SCALE</text>
<text x="30" y="65" class="title">Superficial Face — Vessels / Facial Nerve / SMAS</text>
<g transform="translate(0,10)"><path d="M194 106 C237 87 300 103 323 148 C339 181 328 233 287 255 C251 274 203 254 181 220 C157 183 160 122 194 106 Z" class="organ"/>
<path d="M245 120 L245 237 M188 172 L303 172" class="line"/>
<path d="M215 203 C235 216 258 216 278 203" class="accent"/>
<path d="M195 244 C212 213 207 179 223 147 C236 122 260 123 273 146 C288 172 281 213 297 244" class="vessel"/>
<path d="M190 135 C222 149 226 182 245 193 C267 205 279 221 297 249" class="nerve"/></g>
<text x="454" y="90" class="sub">FIND THESE LANDMARKS</text>
<g class="label"><circle cx="468" cy="122" r="13"/><text x="468" y="127" text-anchor="middle">1</text><text x="491" y="127">facial artery/vein</text></g><g class="label"><circle cx="468" cy="160" r="13"/><text x="468" y="165" text-anchor="middle">2</text><text x="491" y="165">superficial temporal vessels</text></g><g class="label"><circle cx="468" cy="198" r="13"/><text x="468" y="203" text-anchor="middle">3</text><text x="491" y="203">parotid duct</text></g><g class="label"><circle cx="468" cy="236" r="13"/><text x="468" y="241" text-anchor="middle">4</text><text x="491" y="241">SMAS</text></g>
<text x="454" y="292" class="sub">HIGH-RISK NEIGHBORS</text>
<text x="454" y="318" class="dangertext">facial nerve branches · parotid duct</text>
<text x="30" y="336" class="note">Use the schematic to orient; use the landmark and danger lists below for the operative mental model.</text>
</svg>